<svg viewBox="0 0 28 28" fill="none" xmlns="http://www.w3.org/2000/svg"><path d="M17.6303 2.00835C17.1887 2.02364 16.8409 2.39407 16.8535 2.83572L16.893 4.22187C16.9056 4.66352 17.2738 5.00915 17.7153 4.99386L17.9424 4.986C18.384 4.97071 18.7318 4.60028 18.7192 4.15863L18.6797 2.77248C18.6671 2.33083 18.299 1.9852 17.8574 2.00049L17.6303 2.00835Z" fill="#f5f5f7"/><path d="M26.1834 5.68334C25.933 5.31933 25.4445 5.24051 25.0923 5.5073L24.0641 6.28621C23.7119 6.553 23.6294 7.06436 23.8798 7.42838L24.0423 7.66455C24.2927 8.02857 24.7812 8.10738 25.1334 7.84059L26.1616 7.06169C26.5138 6.7949 26.5963 6.28353 26.3459 5.91952L26.1834 5.68334Z" fill="#f5f5f7"/><path d="M24.5987 15.8795C24.217 15.657 24.0749 15.1599 24.2814 14.7693L24.4192 14.5085C24.6256 14.1179 25.1024 13.9816 25.4841 14.2042L26.588 14.8478C26.9697 15.0704 27.1118 15.5674 26.9053 15.9581L26.7675 16.2188C26.5611 16.6095 26.0843 16.7458 25.7026 16.5232L24.5987 15.8795Z" fill="#f5f5f7"/><path d="M10.0396 7.20252C9.8527 7.60289 10.0198 8.09118 10.4127 8.29314L11.5421 8.87356C11.9351 9.07553 12.4051 8.91469 12.592 8.51432L12.7188 8.24251C12.9057 7.84214 12.7386 7.35385 12.3456 7.15189L11.2163 6.57147C10.8233 6.3695 10.3533 6.53034 10.1664 6.93071L10.0396 7.20252Z" fill="#f5f5f7"/><path clip-rule="evenodd" d="M4.65859 16.0856C5.54865 12.5572 8.51157 9.86796 12.151 9.86796C12.3844 9.86796 12.6151 9.87905 12.8426 9.90075C13.6426 7.66013 15.7953 6.05543 18.3253 6.05543C21.5372 6.05543 24.141 8.64175 24.141 11.8321C24.141 13.4713 23.4536 14.9511 22.3496 16.0025C23.0757 16.6926 23.5809 17.6336 23.7664 18.6739C25.1525 18.8619 26.1041 20.14 26.1041 21.5142C26.1041 23.0026 24.9878 24.3783 23.4121 24.3783H22.8481C22.8139 24.3783 22.7799 24.3765 22.746 24.373L5.01622 24.3783C4.95842 24.3812 4.90034 24.3827 4.84201 24.3827H4.25598C4.18257 24.3827 4.10938 24.3746 4.03774 24.3586C2.19186 23.9457 1 22.0472 1 20.1889C1 18.0677 2.54244 16.1774 4.65859 16.0856ZM14.7459 10.3494C16.7606 11.1254 18.3722 12.7766 19.2315 14.8418C19.3098 14.8358 19.3867 14.8338 19.461 14.8338C19.843 14.8338 20.2103 14.885 20.5584 14.9807C21.5529 14.2835 22.2024 13.1332 22.2024 11.8321C22.2024 9.70521 20.4666 7.981 18.3253 7.981C16.713 7.981 15.3306 8.95852 14.7459 10.3494ZM12.151 11.868C9.34766 11.868 6.90224 14.1488 6.45462 17.3041C6.41465 17.5858 6.25657 17.8371 6.01996 17.9952C5.78335 18.1532 5.49062 18.203 5.21508 18.132C5.08852 18.0994 4.95652 18.0821 4.81998 18.0821C3.90377 18.0821 3 18.932 3 20.1889C3 21.289 3.68512 22.1681 4.38346 22.3827H4.84201C4.87123 22.3827 4.90016 22.3818 4.9288 22.3801C4.94864 22.3789 4.96851 22.3783 4.98838 22.3783L22.8337 22.373C22.8681 22.373 22.9023 22.3748 22.9364 22.3783H23.4121C23.7053 22.3783 24.1041 22.0848 24.1041 21.5142C24.1041 20.9436 23.7053 20.6501 23.4121 20.6501C23.3406 20.6501 23.2727 20.6636 23.2081 20.6892C22.8924 20.814 22.5348 20.7702 22.2587 20.5727C21.9825 20.3752 21.8253 20.0511 21.8414 19.712C21.8437 19.6624 21.8449 19.6124 21.8449 19.562C21.8449 17.9671 20.6962 16.8412 19.473 16.8338L19.4644 16.8401C19.3687 16.9101 19.2489 16.9885 19.0868 17.0707C18.8187 17.2067 18.5036 17.2148 18.2288 17.0928C17.954 16.9708 17.7487 16.7316 17.6697 16.4415C16.9329 13.7352 14.6928 11.868 12.151 11.868Z" fill="#f5f5f7" fill-rule="evenodd"/></svg>