<svg version="1.0" xmlns="http://www.w3.org/2000/svg"
viewBox="0 0 980.000000 942.000000"
 preserveAspectRatio="xMidYMid meet">

<g transform="translate(0.000000,942.000000) scale(0.100000,-0.100000)"
fill="#f5f5f7" stroke="none">
<path d="M4785 9403 c-526 -63 -998 -321 -1323 -723 -43 -52 -97 -127 -122
-165 l-45 -71 -182 4 c-287 7 -508 -24 -748 -102 -258 -85 -455 -205 -636
-385 -200 -200 -321 -413 -393 -693 l-24 -93 -91 -7 c-581 -41 -1072 -483
-1198 -1078 -24 -118 -25 -381 0 -500 87 -415 338 -751 704 -938 168 -86 359
-138 533 -144 l75 -3 3 373 c2 293 0 373 -10 376 -7 2 -47 9 -88 15 -210 33
-391 191 -457 399 -23 74 -25 94 -21 195 5 131 32 212 104 314 126 178 354
273 562 233 28 -5 185 -57 348 -115 163 -59 297 -105 299 -103 2 2 -6 122 -17
268 -25 324 -26 460 -3 564 83 394 366 617 844 666 226 22 308 10 605 -96 115
-41 213 -71 217 -67 3 5 39 96 79 203 40 107 84 218 98 245 111 225 330 444
557 558 326 163 726 164 1060 3 412 -200 671 -579 692 -1013 l6 -123 36 0 c20
0 182 -9 361 -20 179 -11 331 -20 338 -20 9 0 12 29 12 113 0 419 -156 852
-430 1197 -83 105 -249 266 -352 343 -358 268 -761 400 -1206 396 -86 -1 -170
-4 -187 -6z"/>
<path d="M7435 7326 c-111 -35 -190 -104 -239 -206 l-31 -65 -3 -534 -3 -535
-377 376 c-351 350 -381 377 -437 399 -45 17 -81 23 -145 23 -75 1 -93 -3
-152 -31 -198 -93 -276 -316 -182 -512 22 -46 95 -124 392 -423 l365 -367
-539 -3 -539 -3 -55 -27 c-148 -73 -239 -243 -212 -396 6 -32 21 -81 33 -108
33 -70 124 -157 196 -185 58 -24 58 -24 587 -27 l530 -3 -367 -367 c-431 -432
-422 -420 -422 -592 0 -100 1 -108 34 -168 41 -75 103 -135 179 -170 50 -24
70 -27 157 -27 164 0 156 -6 588 424 l367 365 0 -511 c0 -485 1 -514 20 -577
34 -110 122 -201 233 -241 73 -27 184 -25 260 4 76 30 167 114 204 189 l28 57
3 539 3 539 367 -365 c433 -431 423 -423 592 -423 95 0 111 3 162 28 151 74
241 247 210 403 -24 115 -34 128 -425 521 l-371 372 535 3 534 3 66 32 c172
85 256 275 200 450 -28 87 -77 153 -145 199 -97 64 -94 64 -670 64 l-520 0
366 368 c324 324 370 374 397 431 70 149 42 311 -74 426 -116 117 -283 145
-433 74 -35 -16 -145 -119 -419 -393 l-373 -370 0 520 c0 424 -3 530 -14 569
-21 67 -78 149 -134 190 -88 65 -230 92 -327 61z"/>
<path d="M2871 6222 c-19 -9 -48 -34 -65 -55 l-31 -39 -5 -184 -5 -184 -110
111 c-60 61 -127 119 -147 130 -54 28 -130 25 -184 -6 -57 -34 -100 -116 -90
-176 10 -64 26 -85 151 -211 l116 -118 -168 0 c-142 0 -174 -3 -208 -19 -48
-22 -79 -54 -100 -103 -41 -99 18 -218 123 -248 20 -5 106 -10 191 -10 l154 0
-120 -123 c-148 -150 -168 -198 -124 -292 46 -99 149 -141 247 -100 19 8 89
67 155 131 l119 117 0 -172 c0 -149 3 -177 19 -209 23 -46 46 -67 94 -87 78
-33 170 -8 221 58 35 45 46 113 46 275 l0 136 128 -126 c104 -104 134 -127
165 -133 117 -22 222 50 234 159 9 78 -10 111 -140 244 l-121 122 155 0 c84 0
171 5 191 10 132 37 181 206 90 304 -53 57 -90 66 -271 66 l-164 0 120 123
c99 101 123 132 133 168 34 126 -51 239 -180 239 -28 0 -65 -7 -83 -16 -18 -9
-82 -66 -143 -126 l-111 -109 -5 168 c-3 111 -9 177 -17 193 -19 35 -61 79
-93 96 -38 20 -126 18 -167 -4z"/>
<path d="M1325 3361 c-50 -22 -91 -69 -105 -119 -6 -22 -10 -175 -10 -382 l0
-344 -257 256 c-225 223 -264 258 -302 268 -111 29 -220 -42 -237 -155 -12
-85 -2 -100 274 -377 l256 -258 -344 0 c-221 0 -359 -4 -385 -11 -22 -6 -56
-28 -76 -48 -73 -72 -77 -180 -11 -253 62 -68 60 -68 459 -68 l357 0 -256
-258 c-265 -266 -278 -283 -278 -362 1 -60 63 -147 123 -169 40 -16 102 -14
144 4 24 10 127 105 285 262 l248 247 0 -339 c0 -207 4 -355 11 -378 13 -47
63 -106 106 -123 90 -38 200 2 242 88 20 43 21 57 21 403 l0 359 258 -256
c276 -275 291 -285 378 -275 117 13 195 142 154 254 -6 15 -127 144 -268 286
l-257 257 358 0 c377 0 400 2 450 48 50 45 71 143 46 209 -13 35 -54 79 -94
101 -26 15 -79 18 -390 22 l-360 5 249 250 c140 140 255 263 262 282 42 99
-20 224 -124 253 -47 13 -58 12 -107 -1 -33 -9 -85 -56 -297 -267 l-258 -256
0 354 c0 324 -2 359 -19 395 -45 98 -151 139 -246 96z"/>
<path d="M5575 2651 c-48 -22 -79 -54 -100 -103 -12 -31 -15 -94 -15 -390 l0
-353 -252 252 c-258 257 -291 283 -360 283 -41 0 -106 -30 -135 -61 -29 -32
-53 -90 -53 -129 0 -67 28 -102 283 -357 l252 -253 -345 0 c-206 0 -360 -4
-382 -10 -102 -29 -164 -149 -127 -247 15 -42 79 -102 119 -113 20 -6 187 -10
385 -10 l350 0 -252 -252 c-257 -258 -283 -291 -283 -360 0 -41 30 -106 61
-135 32 -29 90 -53 129 -53 67 0 102 28 358 283 l252 252 0 -355 c0 -398 1
-404 73 -467 88 -77 235 -46 286 59 20 43 21 58 21 403 l0 359 258 -256 c278
-277 291 -286 380 -274 111 15 179 116 157 233 -6 33 -42 73 -268 300 l-260
262 370 3 370 3 41 29 c72 49 102 150 68 229 -17 43 -76 93 -123 106 -23 7
-173 11 -383 11 l-345 0 252 253 c255 255 283 290 283 357 0 39 -24 97 -53
129 -29 31 -94 61 -135 61 -69 0 -102 -26 -359 -283 l-253 -252 0 355 c0 324
-2 359 -19 395 -45 98 -152 140 -246 96z"/>
<path d="M8665 1871 c-40 -24 -71 -60 -84 -94 -6 -16 -11 -103 -11 -200 l0
-172 -117 117 c-65 64 -132 123 -150 132 -18 9 -55 16 -84 16 -127 0 -213
-114 -178 -238 11 -38 33 -68 132 -169 l120 -123 -164 0 c-138 0 -170 -3 -204
-19 -48 -22 -79 -54 -100 -103 -41 -99 18 -218 123 -248 20 -5 106 -10 191
-10 l154 0 -120 -123 c-148 -150 -168 -198 -124 -292 46 -99 149 -141 248
-100 20 9 89 67 155 132 l118 117 0 -173 c0 -178 5 -205 49 -255 57 -65 180
-75 248 -20 66 52 76 87 83 271 l5 161 115 -110 c63 -61 129 -117 147 -124
112 -48 247 30 260 150 9 78 -10 111 -140 243 l-121 123 165 0 c137 0 171 3
204 19 151 68 153 263 5 339 -41 20 -58 22 -209 22 l-164 0 120 123 c99 101
121 131 132 169 35 124 -51 238 -178 238 -29 0 -66 -7 -84 -16 -18 -9 -85 -68
-149 -132 l-118 -117 0 172 c0 97 -5 184 -11 200 -13 34 -55 80 -91 99 -40 21
-136 18 -173 -5z"/>
</g>
</svg>
